<?xml version="1.0" encoding="UTF-8" standalone="no"?>
<!-- Created with Inkscape (http://www.inkscape.org/) -->

<svg
   version="1.1"
   id="svg2"
   width="5"
   height="25"
   viewBox="0 0 5.0000002 25"
   sodipodi:docname="rope5.svg"
   inkscape:version="1.2 (1:1.2+202205231507+da316b6974)"
   xmlns:inkscape="http://www.inkscape.org/namespaces/inkscape"
   xmlns:sodipodi="http://sodipodi.sourceforge.net/DTD/sodipodi-0.dtd"
   xmlns="http://www.w3.org/2000/svg"
   xmlns:svg="http://www.w3.org/2000/svg">
  <defs
     id="defs6" />
  <sodipodi:namedview
     id="namedview4"
     pagecolor="#ffffff"
     bordercolor="#000000"
     borderopacity="0.25"
     inkscape:showpageshadow="2"
     inkscape:pageopacity="0.0"
     inkscape:pagecheckerboard="true"
     inkscape:deskcolor="#d1d1d1"
     showgrid="false"
     showguides="true"
     inkscape:zoom="146.15319"
     inkscape:cx="5.2034444"
     inkscape:cy="4.4610727"
     inkscape:window-width="2560"
     inkscape:window-height="1361"
     inkscape:window-x="0"
     inkscape:window-y="0"
     inkscape:window-maximized="1"
     inkscape:current-layer="g1350"
     showborder="false">
    <sodipodi:guide
       position="735.54921,23.258271"
       orientation="1,0"
       id="guide492"
       inkscape:locked="false" />
    <sodipodi:guide
       position="756.56601,20.974671"
       orientation="1,0"
       id="guide494"
       inkscape:locked="false" />
    <sodipodi:guide
       position="568.18892,19.813471"
       orientation="1,0"
       id="guide496"
       inkscape:locked="false" />
    <sodipodi:guide
       position="589.01219,16.407471"
       orientation="1,0"
       id="guide498"
       inkscape:locked="false" />
  </sodipodi:namedview>
  <g
     inkscape:groupmode="layer"
     inkscape:label="Image copy"
     id="g1350"
     transform="matrix(0,0.35753735,-0.35698293,0,641.16887,343.27037)">
    <path
       style="fill:#754b08;fill-opacity:1;stroke-width:0.00551204"
       d="m -960.11331,1791.7012 c 9.5e-4,0.39 -0.003,0.7802 0.006,1.1701 -0.006,0.045 0.0363,0.094 0.0926,0.085 0.0535,-0.011 0.0866,-0.057 0.13018,-0.083 0.0634,-0.051 0.13426,-0.097 0.1925,-0.152 0.03,-0.042 0.01,-0.097 0.0155,-0.1447 1.5e-4,-2.3408 4.1e-4,-4.6817 4.1e-4,-7.0226 -9.4e-4,-0.052 -0.0694,-0.081 -0.12017,-0.058 -0.0927,0.031 -0.18931,0.054 -0.27872,0.09 -0.056,0.032 -0.0295,0.097 -0.0357,0.1462 -6e-4,1.9894 -0.002,3.9786 -0.002,5.968 z"
       id="path2717" />
    <path
       style="fill:#754b08;fill-opacity:1;stroke-width:0.00779515"
       d="m -890.48077,1793.0588 c 0.0429,0 0.0718,-0.046 0.10795,-0.065 0.0661,-0.054 0.14329,-0.1005 0.20202,-0.1596 0,-2.3752 0,-4.7504 0,-7.1254 -0.0199,-0.03 -0.0662,0.01 -0.0962,0.01 -0.0706,0.025 -0.14862,0.039 -0.21418,0.071 -0.004,2.4195 -0.004,4.8393 -0.006,7.2589 l 0.004,0.01 z"
       id="path2704" />
    <path
       style="fill:#000000;stroke:none;stroke-width:0.0512584"
       d="m -960.1074,1784.781 -4e-4,1.0022 c 0,0 0.34999,-0.1309 0.51221,-0.1752 0.16222,-0.044 0.75132,-0.1696 1.04161,-0.1991 0.29028,-0.03 0.61472,-0.044 1.02453,-0.052 0.4098,-0.011 0.96476,0.014 1.18673,0.044 0.22199,0.029 0.79401,0.1475 1.18675,0.236 0.39274,0.088 1.05867,0.2877 1.45142,0.4942 0.39273,0.2066 0.84523,0.4795 1.05014,0.6122 0.2049,0.1328 0.3159,0.2435 0.3159,0.2435 l 0.77693,-0.627 c 0,0 -0.66594,-0.4795 -0.93061,-0.6343 -0.26468,-0.155 -1.18675,-0.5828 -1.43434,-0.6861 -0.2476,-0.1036 -0.98184,-0.3172 -1.40019,-0.3983 -0.41835,-0.082 -1.0416,-0.1696 -1.30627,-0.1844 -0.26467,-0.014 -1.36604,-0.022 -1.6051,0 -0.23906,0.022 -0.6574,0.066 -0.96476,0.1181 -0.30736,0.052 -0.90443,0.2055 -0.90443,0.2055 z"
       id="path1332"
       sodipodi:nodetypes="ccsssssssccssssssc" />
    <path
       style="fill:#000000;stroke:none;stroke-width:0.0512584"
       d="m -960.10683,1792.764 2e-5,0.9903 c 0,0 0.81846,-0.2388 1.21121,-0.401 0.39273,-0.1624 0.87937,-0.3984 1.15258,-0.568 0.27322,-0.1697 0.64033,-0.4058 0.82817,-0.5754 0.18783,-0.1696 0.63179,-0.5311 0.77692,-0.6639 0.14515,-0.1327 1.63925,-1.394 1.92954,-1.667 0.29028,-0.2729 1.93807,-1.7187 2.3564,-2.058 0.41835,-0.3393 1.10991,-0.959 1.37458,-1.1212 0.26467,-0.1624 0.74279,-0.4869 1.25505,-0.6786 0.51226,-0.1919 0.74277,-0.3246 1.49411,-0.4942 0.75131,-0.1698 1.42579,-0.2288 2.14297,-0.214 0.71717,0.014 1.58801,0.1037 1.97221,0.2213 0.38419,0.118 0.60618,0.1844 0.85377,0.295 0.2476,0.1106 0.78548,0.3393 1.00746,0.4647 0.22198,0.1254 0.78546,0.4574 0.92207,0.5753 0.13661,0.1182 0.19637,0.1329 0.19637,0.1329 l 0.80255,-0.5976 c 0,0 -0.54642,-0.4351 -0.77694,-0.5605 -0.23051,-0.1254 -1.1099,-0.6048 -1.37457,-0.7008 -0.26467,-0.096 -0.50373,-0.1992 -0.99038,-0.3393 -0.48666,-0.1401 -1.28919,-0.3246 -1.86123,-0.3614 -0.57203,-0.037 -1.1782,-0.066 -1.72461,0 -0.54643,0.066 -1.67341,0.2508 -1.98076,0.3467 -0.30735,0.096 -1.02452,0.3614 -1.28919,0.4794 -0.26468,0.1181 -1.4002,0.7672 -1.65633,0.9737 -0.25613,0.2066 -1.0416,0.863 -1.29772,1.0917 -0.25615,0.2287 -2.27105,2.0064 -2.45887,2.1687 -0.18783,0.1623 -1.42581,1.2466 -1.64779,1.4384 -0.22197,0.1917 -1.22943,0.9736 -1.45141,1.0918 -0.22199,0.1179 -0.70864,0.3687 -0.87086,0.4351 -0.1622,0.066 -0.89532,0.2959 -0.89532,0.2959 z"
       id="path1334"
       sodipodi:nodetypes="ccssssssssssssssccssssssssssssscc" />
    <path
       style="display:inline;fill:#000000;stroke:none;stroke-width:0.0512584"
       d="m -956.90631,1792.1804 0.75985,-0.6491 c 0,0 0.44824,0.3873 0.75559,0.5494 0.30737,0.1625 0.94342,0.4907 1.26786,0.5975 0.32443,0.1071 0.81108,0.2656 1.21662,0.3468 0.40554,0.082 0.98611,0.1439 1.16967,0.1439 0.18357,0 0.67022,0.037 1.06295,0.014 0.39273,-0.022 0.79828,-0.041 1.11843,-0.1036 0.32017,-0.062 0.72571,-0.1512 0.86659,-0.1917 0.14087,-0.041 0.95195,-0.3356 1.10564,-0.4132 0.15368,-0.077 1.12698,-0.5642 1.26358,-0.6713 0.13659,-0.1068 1.1099,-0.8666 1.2337,-0.9846 0.12379,-0.118 1.07576,-0.9737 1.23797,-1.1028 0.16221,-0.1291 1.83135,-1.5822 2.02771,-1.7555 0.19637,-0.1735 1.63498,-1.3979 1.75023,-1.49 0.11527,-0.092 0.80683,-0.5939 0.9477,-0.6824 0.14086,-0.088 0.71716,-0.3909 0.84095,-0.4425 0.12381,-0.052 0.69584,-0.2988 0.97331,-0.3874 0.27748,-0.088 1.1526,-0.3208 1.4258,-0.3577 0.27321,-0.037 0.78547,-0.1291 1.17821,-0.1364 0.39274,-0.01 1.13552,-0.034 1.48129,0.01 0.34578,0.041 1.30628,0.1696 1.45142,0.2138 0.14514,0.044 1.51545,0.4389 1.96368,0.686 0.44823,0.2471 1.0416,0.6418 1.16966,0.7413 0.12807,0.1 0.39042,0.3024 0.39042,0.3024 l -0.77887,0.5681 c 0,0 -0.3842,-0.3025 -0.53788,-0.3983 -0.15368,-0.096 -0.81962,-0.4722 -1.016,-0.5385 -0.19637,-0.066 -1.14832,-0.413 -1.40445,-0.4647 -0.25614,-0.052 -1.04588,-0.2177 -1.54107,-0.2324 -0.49518,-0.014 -1.02452,-0.022 -1.39165,0.01 -0.36711,0.03 -0.68301,0.082 -0.90927,0.1254 -0.22624,0.044 -0.86657,0.2249 -0.9733,0.2655 -0.10672,0.041 -0.80254,0.2841 -0.97329,0.3799 -0.17076,0.096 -0.65741,0.3503 -0.75133,0.413 -0.094,0.063 -1.19954,0.8963 -1.302,0.9849 -0.10245,0.088 -3.56023,3.061 -3.70538,3.1792 -0.14513,0.1179 -0.81961,0.7081 -0.97756,0.8556 -0.15794,0.1476 -1.02026,0.8225 -1.0971,0.8779 -0.0769,0.055 -1.13125,0.7154 -1.35749,0.8113 -0.22626,0.096 -1.29774,0.4684 -1.55388,0.5385 -0.25613,0.07 -0.59336,0.177 -0.99891,0.2286 -0.40554,0.052 -1.1782,0.096 -1.55387,0.088 -0.37566,-0.01 -1.43007,-0.07 -1.95514,-0.1881 -0.52507,-0.1181 -1.2337,-0.3209 -1.71181,-0.5127 -0.47812,-0.1918 -0.87085,-0.38 -1.25078,-0.616 -0.37993,-0.236 -0.9178,-0.6085 -0.9178,-0.6085 z"
       id="path1336"
       sodipodi:nodetypes="ccssssssssssssssssssssssccssssssssssssssssssssc" />
    <path
       style="fill:#000000;stroke:none;stroke-width:0.0512584"
       d="m -945.31208,1792.1878 0.81107,-0.6418 c 0,0 0.81109,0.6713 1.50265,0.9221 0.69156,0.2508 1.24652,0.4573 1.69902,0.5384 0.4525,0.082 1.20381,0.2066 1.699,0.1992 0.4952,-0.01 1.31481,-0.051 1.71609,-0.1327 0.40127,-0.082 1.62216,-0.391 1.8783,-0.5311 0.25613,-0.1402 1.40872,-0.7745 1.75023,-1.0475 0.34151,-0.2729 3.96151,-3.4152 4.08957,-3.5333 0.12807,-0.1179 1.86977,-1.5784 1.8783,-1.6081 0.009,-0.03 0.65741,-0.5089 0.98184,-0.6786 0.32444,-0.1696 0.9477,-0.5089 1.52825,-0.6786 0.58057,-0.1696 1.09283,-0.3688 1.69048,-0.4426 0.59763,-0.074 1.34042,-0.2066 2.03197,-0.1549 0.69157,0.052 1.40874,0.1697 1.72464,0.2361 0.31588,0.066 1.13551,0.2951 1.55386,0.472 0.41835,0.177 1.02452,0.4796 1.28066,0.627 0.25613,0.1476 0.83833,0.5977 0.8981,0.664 0.0598,0.066 -0.71967,0.6652 -0.71967,0.6652 0,0 -1.2798,-0.8792 -1.70669,-1.0341 -0.42688,-0.1549 -1.16967,-0.4425 -1.91246,-0.5459 -0.74277,-0.1036 -1.41726,-0.1769 -1.89537,-0.1621 -0.47812,0.014 -1.89537,0.2433 -2.2625,0.3687 -0.36712,0.1254 -1.81853,0.8188 -2.22834,1.1064 -0.40981,0.2878 -2.80038,2.3827 -3.0309,2.5818 -0.23051,0.1991 -2.2625,2.0063 -2.42471,2.1245 -0.16221,0.1179 -0.86232,0.7154 -1.12698,0.8851 -0.26467,0.1696 -1.34042,0.8777 -1.73316,0.9957 -0.39274,0.1181 -1.26359,0.4132 -1.76732,0.5165 -0.50373,0.1036 -1.37457,0.177 -1.88683,0.1917 -0.51226,0.014 -1.48557,-0.074 -1.86122,-0.1254 -0.37566,-0.052 -1.05868,-0.2729 -1.3575,-0.3762 -0.29883,-0.1036 -1.11844,-0.4057 -1.42581,-0.5901 -0.30735,-0.1844 -0.79401,-0.4205 -1.00745,-0.5901 -0.21344,-0.1696 -0.36712,-0.2213 -0.36712,-0.2213 z"
       id="path1338"
       sodipodi:nodetypes="ccsssssssssssssssscsssssssssssssssc" />
    <path
       style="fill:#000000;stroke:none;stroke-width:0.0512584"
       d="m -933.74501,1792.1774 0.82315,-0.6209 c 0,0 0.88352,0.713 1.57509,0.9638 0.69155,0.2508 1.24649,0.4572 1.69901,0.5385 0.45249,0.082 1.20381,0.2065 1.699,0.199 0.49519,-0.01 1.31481,-0.052 1.71609,-0.1327 0.40127,-0.082 1.62216,-0.3909 1.87829,-0.5311 0.25614,-0.1402 1.40873,-0.7744 1.75024,-1.0475 0.34151,-0.2728 3.9615,-3.4152 4.08957,-3.5333 0.12807,-0.1179 1.86976,-1.5784 1.87831,-1.608 0.009,-0.029 0.6574,-0.5089 0.98182,-0.6787 0.32445,-0.1695 0.94771,-0.5088 1.52826,-0.6785 0.58057,-0.1697 1.09284,-0.3689 1.69047,-0.4427 0.59764,-0.073 1.34043,-0.2065 2.03198,-0.1548 0.69156,0.052 1.40873,0.1697 1.72463,0.236 0.31589,0.066 1.13551,0.2951 1.55387,0.4722 0.41834,0.1769 1.02452,0.4794 1.28064,0.6269 0.25615,0.1475 0.81536,0.5532 0.87513,0.6196 0.0598,0.066 -0.7812,0.6417 -0.7812,0.6417 0,0 -1.19528,-0.8113 -1.62217,-0.9663 -0.42689,-0.1549 -1.16967,-0.4425 -1.91246,-0.5458 -0.74278,-0.1036 -1.41726,-0.177 -1.89536,-0.1622 -0.47812,0.014 -1.89538,0.2433 -2.2625,0.3687 -0.36713,0.1254 -1.81854,0.8189 -2.22835,1.1065 -0.40982,0.2877 -2.80038,2.3826 -3.0309,2.5818 -0.23051,0.1992 -2.2625,2.0062 -2.42471,2.1244 -0.16222,0.1179 -0.86232,0.7155 -1.12698,0.8851 -0.26468,0.1697 -1.34043,0.8778 -1.73316,0.9958 -0.39274,0.1181 -1.26359,0.4131 -1.76731,0.5164 -0.50373,0.1036 -1.37458,0.177 -1.88685,0.1918 -0.51226,0.014 -1.48556,-0.074 -1.86121,-0.1253 -0.37566,-0.052 -1.05869,-0.273 -1.35751,-0.3763 -0.29882,-0.1036 -1.11844,-0.4058 -1.42581,-0.5902 -0.30735,-0.1844 -0.794,-0.4204 -1.00744,-0.59 -0.21345,-0.1697 -0.45163,-0.2839 -0.45163,-0.2839 z"
       id="path1340"
       sodipodi:nodetypes="ccsssssssssssssssscsssssssssssssssc" />
    <path
       style="fill:#000000;stroke:none;stroke-width:0.0512584"
       d="m -921.98477,1792.1774 0.81108,-0.6418 c 0,0 0.81108,0.6712 1.50263,0.922 0.69156,0.2509 1.24652,0.4575 1.69901,0.5385 0.4525,0.082 1.20384,0.2066 1.69902,0.1991 0.49519,-0.01 1.3148,-0.052 1.71608,-0.1327 0.40127,-0.081 1.62217,-0.3909 1.8783,-0.5311 0.25612,-0.1402 1.40873,-0.7745 1.75023,-1.0474 0.3415,-0.273 3.9615,-3.4153 4.08958,-3.5333 0.12806,-0.1181 1.86976,-1.5786 1.87829,-1.6081 0.009,-0.029 0.65741,-0.509 0.98184,-0.6785 0.32444,-0.1698 0.94769,-0.5091 1.52826,-0.6787 0.58057,-0.1697 1.09282,-0.3689 1.69047,-0.4425 0.59764,-0.074 1.34042,-0.2066 2.03198,-0.1549 0.69155,0.052 1.40872,0.1695 1.72463,0.2359 0.31589,0.066 1.13551,0.2951 1.55386,0.4721 0.41834,0.1771 1.02453,0.4795 1.28066,0.627 0.25613,0.1476 0.87938,0.5975 0.93914,0.6638 0.0598,0.066 -0.84523,0.5976 -0.84523,0.5976 0,0 -1.19528,-0.8115 -1.62216,-0.9664 -0.42689,-0.1548 -1.16968,-0.4425 -1.91246,-0.5458 -0.74278,-0.1036 -1.41726,-0.1771 -1.89538,-0.1623 -0.4781,0.014 -1.89537,0.2434 -2.26249,0.3688 -0.36712,0.1255 -1.81854,0.8188 -2.22836,1.1066 -0.4098,0.2876 -2.80037,2.3825 -3.03088,2.5816 -0.23053,0.1992 -2.2625,2.0064 -2.42472,2.1245 -0.16222,0.1179 -0.86231,0.7154 -1.12698,0.8852 -0.26467,0.1695 -1.34042,0.8777 -1.73316,0.9958 -0.39273,0.118 -1.26359,0.413 -1.76731,0.5163 -0.50372,0.1036 -1.37458,0.177 -1.88683,0.1917 -0.51227,0.014 -1.48557,-0.074 -1.86123,-0.1253 -0.37566,-0.052 -1.05868,-0.273 -1.3575,-0.3762 -0.29882,-0.1036 -1.11844,-0.4057 -1.4258,-0.5902 -0.30736,-0.1844 -0.79401,-0.4204 -1.00745,-0.5901 -0.21345,-0.1696 -0.36712,-0.2212 -0.36712,-0.2212 z"
       id="path1342"
       sodipodi:nodetypes="ccsssssssssssssssscsssssssssssssssc" />
    <path
       style="fill:#000000;stroke:none;stroke-width:0.0512584"
       d="m -910.34209,1792.1247 0.74713,-0.6185 c 0,0 1.0896,0.7579 1.48805,0.9301 0.39845,0.1721 1.00216,0.4276 1.35231,0.4903 0.35016,0.062 1.40061,0.24 1.78094,0.2608 0.38033,0.021 1.17723,0.011 1.57568,-0.042 0.39844,-0.052 1.62398,-0.2659 2.13108,-0.5059 0.50712,-0.2399 1.72662,-0.9284 1.90772,-1.0692 0.18112,-0.1409 5.24624,-4.5535 5.24624,-4.5535 0,0 1.27986,-1.1006 1.55756,-1.2622 0.2777,-0.1617 1.37646,-0.6677 1.67228,-0.7564 0.29581,-0.088 0.71654,-0.2233 0.71654,-0.2233 l -0.01,1.0101 c 0,0 -0.73629,0.2206 -1.02147,0.345 -0.19871,0.087 -0.73652,0.3704 -0.86935,0.4695 -0.1328,0.099 -3.00646,2.5454 -3.21776,2.7227 -0.2113,0.1773 -2.65029,2.2637 -2.65029,2.2637 0,0 -1.31004,1.0118 -1.40663,1.085 -0.0966,0.073 -1.17119,0.6259 -1.42475,0.7197 -0.25356,0.094 -1.64813,0.5163 -2.04054,0.5633 -0.3924,0.047 -1.1893,0.1252 -1.59378,0.1252 -0.4045,0 -1.32817,-0.062 -1.7085,-0.1148 -0.38034,-0.052 -1.14705,-0.2242 -1.38853,-0.3181 -0.24149,-0.094 -1.43683,-0.5841 -1.60587,-0.6937 -0.16903,-0.1095 -1.23906,-0.8279 -1.23906,-0.8279 z"
       id="path1344"
       sodipodi:nodetypes="ccsssssscssccssscsssssssc" />
    <path
       style="fill:#000000;stroke:none;stroke-width:0.0512584"
       d="m -898.70112,1792.1494 c 0.0604,0.021 0.67736,-0.685 0.67736,-0.685 0,0 0.98887,0.7267 1.45976,0.9353 0.4709,0.2087 1.35231,0.5112 1.73868,0.5946 0.38637,0.084 1.07461,0.1983 1.38852,0.2087 0.31394,0.01 1.13498,0.01 1.40061,-0.01 0.26564,-0.021 0.97801,-0.1669 1.27986,-0.2399 0.30186,-0.073 0.57992,-0.1916 0.57992,-0.1916 l -2e-5,0.9936 c 0,0 -0.95429,0.2307 -1.34066,0.262 -0.38638,0.031 -1.34024,0.084 -1.83528,0.052 -0.49503,-0.031 -1.66622,-0.146 -2.1492,-0.292 -0.48297,-0.1461 -1.50926,-0.5319 -1.81112,-0.699 -0.30185,-0.1668 -1.38853,-0.9283 -1.38853,-0.9283 z"
       id="path1346"
       sodipodi:nodetypes="ccsssssccsssscc" />
    <path
       style="fill:none;fill-opacity:1;stroke:none;stroke-width:0.0448569;stroke-opacity:1"
       d="m -943.17398,1789.094 c -1.33038,1.159 -2.61419,2.2578 -2.85289,2.4418 -0.76605,0.5903 -2.15234,1.2282 -3.11031,1.4311 -0.72467,0.1534 -1.06785,0.1863 -1.92887,0.1846 -1.02526,0 -1.63558,-0.079 -2.42836,-0.3078 -0.87546,-0.2522 -1.80262,-0.6855 -2.30985,-1.0795 l -0.27767,-0.2157 1.78727,-1.5715 c 2.5547,-2.2463 3.69734,-3.1884 4.27491,-3.5243 0.791,-0.46 1.75495,-0.8067 2.7567,-0.9916 1.05963,-0.1954 2.81742,-0.136 3.72031,0.1256 0.81083,0.2352 2.32958,0.9726 2.68434,1.3037 l 0.10334,0.096 z"
       id="path1348" />
    <path
       style="fill:#754b08;fill-opacity:1;stroke-width:0.0440962"
       d="m -944.58654,1791.6377 c 0.77299,0.6139 1.70669,1.0545 2.70434,1.3282 1.8928,0.5268 4.02023,0.4271 5.82343,-0.3044 0.60476,-0.287 1.1944,-0.6127 1.73442,-0.9805 1.78993,-1.5329 3.5806,-3.0652 5.36934,-4.5993 0.14146,-0.2334 -0.26115,-0.3336 -0.40173,-0.4793 -1.02697,-0.6831 -2.2731,-1.112 -3.54648,-1.2953 -1.44283,-0.155 -2.95727,-0.075 -4.28876,0.4682 -1.44228,0.5082 -2.49054,1.5502 -3.60699,2.4467 -1.26794,1.071 -2.5229,2.1535 -3.78432,3.2302 -0.0519,0.069 -0.0496,0.1143 -0.004,0.1855 z"
       id="path2557" />
    <path
       style="fill:#754b08;fill-opacity:1;stroke-width:0.0440962"
       d="m -956.19595,1791.6385 c 1.0033,0.8327 2.33597,1.3281 3.68674,1.561 1.56373,0.199 3.22724,0.1077 4.66022,-0.5109 0.92019,-0.3618 1.77371,-0.854 2.45957,-1.5008 1.60353,-1.3555 3.18255,-2.7324 4.7713,-4.1007 0.12826,-0.2341 -0.26674,-0.3502 -0.42266,-0.494 -0.85737,-0.5113 -1.77815,-0.9863 -2.79442,-1.2122 -1.61715,-0.3014 -3.3448,-0.2351 -4.87815,0.3291 -0.9939,0.3372 -1.88671,0.8698 -2.62045,1.5397 -1.63761,1.3857 -3.24033,2.8022 -4.86058,4.2032 -0.0512,0.07 -0.0486,0.1148 -9.5e-4,0.1856 z"
       id="path2559" />
    <path
       style="fill:#754b08;fill-opacity:1;stroke-width:0.0440962"
       d="m -932.96138,1791.6792 c 0.66151,0.5089 1.41454,0.9273 2.25401,1.1791 0.90703,0.3283 1.89326,0.4941 2.87441,0.5082 1.01549,-0.011 2.01903,-0.1788 2.97015,-0.4853 0.78076,-0.2355 1.4456,-0.6866 2.09658,-1.1155 1.5497,-1.1828 2.95711,-2.4969 4.43043,-3.7491 0.3446,-0.3338 0.78555,-0.6117 1.06855,-0.9813 -0.1613,-0.2533 -0.51286,-0.3847 -0.76448,-0.5738 -1.32959,-0.8796 -3.03784,-1.2272 -4.688,-1.2309 -0.86973,0.021 -1.74896,0.1496 -2.55971,0.4275 -0.94737,0.3874 -1.88464,0.829 -2.62048,1.4877 -1.70844,1.43 -3.37086,2.9003 -5.05924,4.3479 -0.0515,0.069 -0.049,0.1146 -0.002,0.1855 z"
       id="path2561" />
    <path
       style="fill:#754b08;fill-opacity:1;stroke-width:0.0440962"
       d="m -921.20003,1791.637 c 0.86975,0.7836 2.08133,1.1908 3.27121,1.4676 1.8329,0.3855 3.83365,0.1723 5.50028,-0.5913 1.42036,-0.6932 2.48922,-1.7811 3.65017,-2.7469 1.02045,-0.8814 2.04354,-1.7606 3.05822,-2.647 0.1373,-0.2392 -0.27657,-0.3228 -0.42301,-0.461 -0.6659,-0.4459 -1.39709,-0.8263 -2.21532,-1.0198 -1.39864,-0.3734 -2.91217,-0.4908 -4.34162,-0.1735 -1.10849,0.1928 -2.06603,0.7551 -3.01315,1.2545 -1.82769,1.5776 -3.65538,3.1553 -5.48307,4.733 -0.0503,0.069 -0.0502,0.1135 -0.004,0.1844 z"
       id="path2563" />
    <path
       style="fill:#754b08;fill-opacity:1;stroke-width:0.0440962"
       d="m -909.59246,1791.6511 c 0.92293,0.63 1.92805,1.2244 3.10089,1.4304 1.048,0.2337 2.14342,0.2333 3.21503,0.1588 0.99372,-0.1416 1.98419,-0.3923 2.81632,-0.8998 0.55456,-0.312 1.14083,-0.592 1.56986,-1.0385 1.6264,-1.407 3.25666,-2.8105 4.87851,-4.2213 0.14077,-0.2361 -0.27089,-0.3241 -0.41432,-0.4609 -0.91183,-0.6292 -1.99537,-1.0587 -3.1417,-1.244 -1.08508,-0.1972 -2.21564,-0.2292 -3.29793,0 -1.07187,0.1595 -2.0254,0.6562 -2.92134,1.1645 -1.24439,0.8752 -2.32233,1.9111 -3.46634,2.8801 -0.78105,0.6966 -1.60088,1.371 -2.3562,2.0824 -0.0507,0.05 -0.003,0.097 0.0172,0.1477 z"
       id="path2565" />
    <path
       style="fill:#754b08;fill-opacity:1;stroke-width:0.00779515"
       d="m -897.89675,1791.5587 c 0.0206,0.039 0.0789,0.056 0.11199,0.087 0.35482,0.2466 0.70984,0.496 1.09824,0.7025 0.41192,0.1973 0.85057,0.3493 1.29065,0.4924 0.31982,0.1037 0.64823,0.1882 0.98428,0.2424 0.32487,0.053 0.65075,0.1116 0.98154,0.1287 0.45782,0.011 0.91652,0.01 1.37398,-0.012 0.28496,-0.025 0.56397,-0.086 0.84312,-0.1401 0.24758,-0.053 0.49925,-0.1015 0.73665,-0.1811 0.0102,-0.1207 9.4e-4,-0.2472 0.004,-0.37 0,-2.2084 0,-4.4167 0,-6.625 -0.0306,-0.031 -0.0893,0.02 -0.13044,0.024 -0.32055,0.1015 -0.63744,0.216 -0.92699,0.3742 -0.24711,0.1314 -0.50244,0.2587 -0.70383,0.4425 -1.69888,1.434 -3.39266,2.8726 -5.08,4.3167 -0.19029,0.1653 -0.38725,0.3252 -0.57338,0.4939 -0.006,0.01 -0.0107,0.014 -0.0102,0.022 z"
       id="path2713" />
    <path
       style="fill:#754b08;fill-opacity:1;stroke-width:0.00551204"
       d="m -959.70429,1791.0715 c 6e-4,0.5154 -4.1e-4,1.0309 0.002,1.5464 0.009,0.041 0.0602,0.021 0.0891,0.013 0.20367,-0.064 0.40951,-0.1282 0.59638,-0.2251 0.24648,-0.1215 0.49217,-0.2446 0.73173,-0.3762 0.25693,-0.1668 0.49624,-0.3529 0.73831,-0.5354 0.31785,-0.2433 0.63264,-0.4901 0.92797,-0.7541 1.02852,-0.8981 2.05587,-1.7972 3.07738,-2.7012 0.0193,-0.041 0.004,-0.088 0.009,-0.1314 -6.7e-4,-0.5653 -0.002,-1.1305 -0.003,-1.6959 -0.0135,-0.037 -0.0684,-0.045 -0.10029,-0.068 -0.33412,-0.1804 -0.70504,-0.3015 -1.07579,-0.4122 -0.39548,-0.1158 -0.8036,-0.1945 -1.20959,-0.277 -0.22349,-0.045 -0.4486,-0.086 -0.67824,-0.097 -0.50211,-0.03 -1.00637,-0.024 -1.50878,0 -0.27895,0.012 -0.55754,0.038 -0.83022,0.092 -0.24978,0.047 -0.50052,0.094 -0.74347,0.1639 -0.0388,0.021 -0.0141,0.069 -0.0211,0.1025 -6e-4,1.7872 -0.002,3.5743 -9.5e-4,5.3614 z"
       id="path2724" />
    <path
       style="fill:#754b08;fill-opacity:1;stroke-width:0.00779515"
       d="m -953.5516,1788.0037 c 0.0505,0.025 0.0787,-0.041 0.11474,-0.061 0.36474,-0.3206 0.72851,-0.6421 1.09705,-0.9591 0.0196,-0.045 -0.0525,-0.067 -0.079,-0.097 -0.31173,-0.234 -0.65915,-0.4287 -1.00198,-0.6262 -0.0399,-0.015 -0.0766,-0.059 -0.12147,-0.05 -0.0368,0.029 -0.01,0.085 -0.0177,0.1236 0,0.5507 0,1.1014 0,1.6521 0.003,0.011 0.006,0.012 0.009,0.018 z"
       id="path2728" />
  </g>
</svg>
